<svg version="1.2" xmlns="http://www.w3.org/2000/svg" viewBox="0 0 693 597" width="693" height="597"><style>tspan{white-space:pre}.a{fill:#3f3c57}.b{fill:#fdb4b4}.c{fill:#6c63ff}.d{fill:#2e2e41}.e{fill:#e8e9ea}.f{fill:#d6d7d8}.g{font-size: 38px;fill: #2e2e41;font-weight: 700;font-family: "Lora-Bold", "Lora"}</style><path class="a" d="m73.4 487.6c0 0.7 0.6 1.2 1.3 1.2h543.3c0.7 0 1.2-0.5 1.2-1.2 0-0.7-0.5-1.2-1.2-1.2h-543.3c-0.7 0-1.3 0.5-1.3 1.2z"/><path class="b" d="m250.7 74.3l5.9 26.8-12.6 37.3-20.2-40 2.8-23.3 24.1-0.8z"/><path class="c" d="m222.8 99.7h34.9v42h-34.9z"/><path class="b" d="m243.3 87.8c-13.2 0-23.8-10.6-23.8-23.7 0-13.1 10.6-23.8 23.8-23.8 13.2 0 23.9 10.7 23.9 23.8 0 13.1-10.7 23.7-23.9 23.7z"/><path class="d" d="m222.6 81.7c0 0-17.8-32.6-1.8-48.4 16.1-15.7 28.9-5.3 28.9-5.3l7.4-0.3c0 0 1.5 5.7 4 2.6 2.5-3.1 6.9 8.2 6.9 8.2 8.3 14.9-20.4 18.2-20.4 18.2 0 0 2.1 6.6-0.1 8-2.1 1.4-7.7 6.5-7.7 6.5l-5.1 3.8-3-4.5c0 0-3.1-2.5-4.7-1.4-1.6 1 0.6 14.6 0.6 14.6l-5-2q0 0 0 0z"/><path class="d" d="m193.9 322.2l-9.1 135.4 22.4 0.7 29.7-135-43-1.1z"/><path class="d" d="m248.3 321.4l-9.1 135.4 22.4 0.8 29.7-135-43-1.2z"/><path class="e" d="m188.4 353.1l12-147.5-18.4-76.7c-1.5-11.5 5.7-22.3 16.9-25.2l17.9-4.7 7.9-7.9 18.1 39.6 11.2-39.6 8.8 6.4 26.1 11.4v0.3l-4.2 92.7 9.3 149.9h-0.4l-105.2 1.3z"/><path class="d" d="m260.2 456l6.5 19.3c0 0 25.4 3.5 25.8 11.3 0.4 7.8-34.6 3.3-55 4.3-20.5 1-3.5-21-3.5-21l2.2-12.7 24-1.2z"/><path class="d" d="m207.1 454.6l6.5 19.3c0 0 25.4 3.5 25.8 11.3 0.4 7.8-34.5 3.3-55 4.3-20.4 1-3.4-21-3.4-21l2.2-12.7 23.9-1.2z"/><path class="b" d="m175.4 274.8c-0.3-3.8 0.4-7.6 1.9-11.1l-4.9-39.6 19-1.7 2.9 40.3c1.9 3.3 3 7 3.2 10.8 0.5 9.5-4 17.5-10 17.9-6.1 0.3-11.5-7.1-12.1-16.6q0 0 0 0z"/><path class="b" d="m295.7 280.6c-0.2-3.8 0.5-7.6 2-11.1l-4.4-39.6 19-1.5 2.5 40.3c1.8 3.3 2.9 7 3 10.9 0.5 9.5-4.1 17.4-10.2 17.7-6.1 0.3-11.4-7.2-11.9-16.7q0 0 0 0z"/><path class="e" d="m172.4 258.9l-0.1-0.3-9.9-52.8 11.7-86c1-7.7 7.9-13.3 15.7-12.6 4.1 0.3 7.7 2.2 10.3 5.4 2.5 3.1 3.6 7.1 3.1 11.1l-8.8 64.5 5.5 69c0 0-27.5 1.7-27.5 1.7z"/><path class="e" d="m289.9 257.7l-19.9-132.1c-1.1-3.9-0.5-8 1.7-11.4 2.1-3.4 5.5-5.8 9.5-6.6 7.6-1.6 15.2 3.1 17.1 10.5l19.2 137.9-27.6 1.7q0 0 0 0z"/><path class="f" d="m243.4 142.8c-1.4 0-2.5-1.1-2.5-2.4 0-1.4 1.1-2.5 2.5-2.5 1.3 0 2.4 1.1 2.4 2.5 0 1.3-1.1 2.4-2.4 2.4z"/><path class="f" d="m243.4 161.2c-1.4 0-2.5-1.1-2.5-2.4 0-1.4 1.1-2.5 2.5-2.5 1.3 0 2.4 1.1 2.4 2.5 0 1.3-1.1 2.4-2.4 2.4z"/><path class="f" d="m243.4 179.6c-1.4 0-2.5-1.1-2.5-2.4 0-1.4 1.1-2.5 2.5-2.5 1.3 0 2.4 1.1 2.4 2.5 0 1.3-1.1 2.4-2.4 2.4z"/><path class="f" d="m243.4 198c-1.4 0-2.5-1.1-2.5-2.4 0-1.4 1.1-2.5 2.5-2.5 1.3 0 2.4 1.1 2.4 2.5 0 1.3-1.1 2.4-2.4 2.4z"/><path class="f" d="m243.4 216.4c-1.4 0-2.5-1.1-2.5-2.5 0-1.3 1.1-2.4 2.5-2.4 1.3 0 2.4 1.1 2.4 2.4 0 1.4-1.1 2.5-2.4 2.5z"/><path class="f" d="m243.4 234.8c-1.4 0-2.5-1.1-2.5-2.5 0-1.3 1.1-2.4 2.5-2.4 1.3 0 2.4 1.1 2.4 2.4 0 1.4-1.1 2.5-2.4 2.5z"/><path class="f" d="m243.4 253.2c-1.4 0-2.5-1.1-2.5-2.5 0-1.3 1.1-2.4 2.5-2.4 1.3 0 2.4 1.1 2.4 2.4 0 1.4-1.1 2.5-2.4 2.5z"/><path class="f" d="m243.4 271.6c-1.4 0-2.5-1.1-2.5-2.5 0-1.3 1.1-2.4 2.5-2.4 1.3 0 2.4 1.1 2.4 2.4 0 1.4-1.1 2.5-2.4 2.5z"/><path class="c" d="m243.4 285.8l-46.3-6.1-0.9-0.1-23.6-54.2-14.1-32.3h36.7l48.2 92.7z"/><path class="d" d="m428.7 80.2l29.4-16v45.8h-34l4.6-29.8z"/><path class="b" d="m464.4 90.4l2.8 22.5-19.6 38.7-12.1-36 5.7-25.9 23.2 0.7z"/><path class="c" d="m434.4 114.2h33.8v40.6h-33.8z"/><path class="d" d="m496 329l8.8 130.8-21.6 0.7-28.7-130.4 41.5-1.1z"/><path class="d" d="m443.5 328.3l8.8 130.7-21.7 0.8-28.6-130.4 41.5-1.1z"/><path class="e" d="m518.9 356.8h-0.5l-138.1-0.5 0.2-0.5 35.5-139.8-8.9-70.6c-1.7-13.3 5.5-26 17.9-31.4l4.5-2 8.5-6.1 10.8 38.2 17.5-38.3 7.6 7.7 17.3 4.5c10.8 2.9 17.8 13.3 16.3 24.3v0.1l-26.4 75c0 0 37.8 139.4 37.8 139.4z"/><path class="d" d="m432 458.3l23.2 1.1 2.1 12.3c0 0 16.4 21.2-3.3 20.3-19.8-1-53.6 3.3-53.2-4.2 0.4-7.6 25-10.9 25-10.9l6.2-18.6z"/><path class="d" d="m483.3 456.9l23.1 1.2 2.1 12.2c0 0 16.5 21.3-3.3 20.3-19.8-1-53.5 3.4-53.1-4.2 0.4-7.5 24.9-10.8 24.9-10.8l6.3-18.7z"/><path class="b" d="m504.5 281.9c-0.6 9.2-5.8 16.4-11.7 16.1-5.9-0.4-10.2-8.1-9.7-17.3 0.2-3.7 1.3-7.3 3.1-10.5l2.8-38.9 18.3 1.7-4.7 38.2c1.5 3.4 2.1 7.1 1.9 10.7q0 0 0 0z"/><path class="b" d="m410.2 278.4c-0.8 9.2-6.1 16.3-12 15.8-5.9-0.5-10-8.3-9.3-17.5 0.2-3.6 1.4-7.2 3.3-10.3l3.6-38.9 18.3 2.1-5.5 38.1c1.4 3.4 1.9 7.1 1.6 10.7z"/><path class="e" d="m507.4 266.6l-26.6-1.7v-0.4l5.3-66.2-8.5-62.3c-0.5-3.9 0.6-7.7 3-10.8 2.5-3 6-4.9 9.9-5.2 7.6-0.6 14.2 4.8 15.2 12.2l11.3 83.1z"/><path class="e" d="m414.6 264.1l-26.7-1.6 0.1-0.4 18.4-132.7c1.9-7.3 9.2-11.8 16.6-10.3 3.8 0.8 7.1 3.1 9.2 6.4 2.1 3.3 2.6 7.2 1.6 11 0 0-19.2 127.6-19.2 127.6z"/><path class="f" d="m448.3 155.8c-1.3 0-2.4-1.1-2.4-2.4 0-1.3 1.1-2.3 2.4-2.3 1.3 0 2.3 1 2.3 2.3 0 1.3-1 2.4-2.3 2.4z"/><path class="f" d="m448.3 173.6c-1.3 0-2.4-1.1-2.4-2.4 0-1.3 1.1-2.3 2.4-2.3 1.3 0 2.3 1 2.3 2.3 0 1.3-1 2.4-2.3 2.4z"/><path class="f" d="m448.3 191.3c-1.3 0-2.4-1-2.4-2.3 0-1.3 1.1-2.4 2.4-2.4 1.3 0 2.3 1.1 2.3 2.4 0 1.3-1 2.3-2.3 2.3z"/><path class="f" d="m448.3 209.1c-1.3 0-2.4-1.1-2.4-2.4 0-1.3 1.1-2.3 2.4-2.3 1.3 0 2.3 1 2.3 2.3 0 1.3-1 2.4-2.3 2.4z"/><path class="f" d="m448.3 226.9c-1.3 0-2.4-1.1-2.4-2.4 0-1.3 1.1-2.3 2.4-2.3 1.3 0 2.3 1 2.3 2.3 0 1.3-1 2.4-2.3 2.4z"/><path class="f" d="m448.3 244.6c-1.3 0-2.4-1-2.4-2.3 0-1.3 1.1-2.4 2.4-2.4 1.3 0 2.3 1.1 2.3 2.4 0 1.3-1 2.3-2.3 2.3z"/><path class="f" d="m448.3 262.4c-1.3 0-2.4-1.1-2.4-2.4 0-1.3 1.1-2.3 2.4-2.3 1.3 0 2.3 1 2.3 2.3 0 1.3-1 2.4-2.3 2.4z"/><path class="f" d="m448.3 280.2c-1.3 0-2.4-1.1-2.4-2.4 0-1.3 1.1-2.3 2.4-2.3 1.3 0 2.3 1 2.3 2.3 0 1.3-1 2.4-2.3 2.4z"/><path class="b" d="m451.9 101.9c-12.2 0-22.1-9.8-22.1-22 0-12.1 9.9-21.9 22.1-21.9 12.2 0 22 9.8 22 21.9 0 12.2-9.8 22-22 22z"/><path class="d" d="m463.4 54.3c1.1 2.1-0.6 4.8-2.8 5.7-2.2 0.9-4.7 0.6-7.1 0.2-2.4-0.4-4.9-0.7-7.1 0.2-2.9 1.2-4.5 4.1-5.9 6.9q-3.9 7.7-7.8 15.4c-1.2 2.5-2.5 5.2-2.5 8-0.1 5.1 4 9.3 6.2 13.9 2.7 5.7 2.5 12.7-0.5 18.2-3.1 5.5-8.9 9.4-15.2 10.1-1.6 0.2-3.4 0.2-4.9-0.5-1.5-0.8-2.6-2.4-2.3-4 0.5-3.2 5.4-4 6.3-7.1 0.5-1.6-0.3-3.3-1.5-4.6-1.1-1.3-2.5-2.3-3.6-3.6-2.4-3-2.6-7.7-0.3-10.8 1.3-1.9 3.3-3.3 4.2-5.4 0.7-1.8 0.4-3.9 0.2-5.8q-0.6-3.7-1.1-7.5c-0.4-2.9-0.8-5.9 0-8.7 1.9-6.4 9.2-9.4 13.5-14.6 2-2.4 3.3-5.3 5.3-7.6 3.5-4 8.9-6.2 14.1-5.7 5.2 0.4 10.2 3.5 12.9 8"/><path class="d" d="m459.9 54.7c-1 0.4-1.4 1.8-1.1 2.9 0.3 1.1 1.1 2 1.8 2.8 8.5 9.8 10.4 24.6 4.8 36.2-1.5 3.1-3.4 6-4.2 9.4-0.6 2.4-0.6 5.1-1.9 7.2-1.4 2.1-4.2 3.5-4.4 6.1-0.2 1.6 0.8 3.1 2.1 4.1 1.4 0.9 3 1.4 4.6 1.7 4.1 1 8.4 1.5 12.6 1.5 1.4 0.1 2.9 0 4.1-0.5 1.3-0.6 2.4-1.8 2.4-3.1 0-1.1-0.6-2.1-0.7-3.2-0.2-3.3 4.2-5 5-8.1 0.6-2.1-0.5-4.2-1.7-6-1.2-1.8-2.5-3.6-2.5-5.8 0-2 1.3-3.8 1.8-5.8 0.7-2.8-0.1-5.6-1-8.3q-1.1-3.5-2.1-6.9-1.2-3.7-2.3-7.3c-1.4-4.3-2.8-8.7-5.7-12.1-2.8-3.4-7.6-5.7-11.9-4.3"/><path class="a" d="m475 139.8l-1.5-0.5c3.1-10.7-3.7-30.8-3.7-31l1.5-0.5c0.2 0.9 7 20.7 3.7 32z"/><path class="a" d="m474.2 152.1c-3.6 0-6.6-2.9-6.6-6.5 0-3.7 3-6.6 6.6-6.6 3.7 0 6.6 2.9 6.6 6.6 0 3.6-2.9 6.5-6.6 6.5z"/><path class="a" d="m431 168.7h-4c-0.5 0-0.8-0.3-0.8-0.7 0-0.5 0.3-0.8 0.8-0.8h4c1.1 0 2.1-0.5 2.9-1.2 0.8-0.8 1.2-1.8 1.2-2.9l-0.1-24.5c0-5.3-4.3-9.6-9.6-9.6-5.4 0-9.7 4.3-9.7 9.6v22.9c0 2.2 1.9 4.1 4.1 4.1h2.7c0.5 0 0.8 0.4 0.8 0.8 0 0.4-0.3 0.8-0.8 0.8h-2.7c-3.1-0.1-5.7-2.6-5.7-5.7v-22.9c0-6.2 5-11.2 11.3-11.2 6.2 0 11.2 5 11.2 11.2l0.1 24.5c0 1.5-0.6 2.9-1.7 4-1.1 1-2.5 1.6-4 1.6z"/><path class="a" d="m422.5 169.2c-1.5 0-2.8-1.3-2.8-2.8 0-1.5 1.3-2.8 2.8-2.8 1.6 0 2.8 1.3 2.8 2.8 0 1.5-1.2 2.8-2.8 2.8z"/><path class="a" d="m427 170.7c-1.6 0-2.8-1.2-2.8-2.7 0-1.6 1.2-2.8 2.8-2.8 1.5 0 2.8 1.2 2.8 2.8 0 1.5-1.3 2.7-2.8 2.7z"/><path class="a" d="m265.8 128l-1.6-0.4c3.2-10.8-3.5-31.1-3.6-31.3l1.9 1.4c0.3 0.8 6.5 19.1 3.3 30.3z"/><path class="a" d="m212.6 129.9l1.5-0.4c-3.2-10.8 3.6-30.8 3.7-31l-1.6 1.1c-0.3 0.8-6.9 19.1-3.6 30.3z"/><path class="a" d="m265 140.4c-3.6 0-6.6-3-6.6-6.6 0-3.6 3-6.5 6.6-6.5 3.6 0 6.6 2.9 6.6 6.5 0 3.6-3 6.6-6.6 6.6z"/><path class="a" d="m219.6 170.2h-4c-0.4 0-0.8-0.4-0.8-0.8 0-0.4 0.4-0.8 0.8-0.8h4c1.1 0 2.1-0.4 2.9-1.2 0.8-0.8 1.2-1.8 1.2-2.9v-24.4c0-5.3-4.4-9.7-9.7-9.7-5.4 0-9.7 4.4-9.7 9.7v22.9c0 2.2 1.9 4 4.1 4l2.8 0.1c0.4 0 0.7 0.3 0.7 0.7 0 0.5-0.3 0.8-0.8 0.8h-2.7c-3.1 0-5.6-2.6-5.6-5.6l-0.1-22.9c0-6.2 5.1-11.2 11.3-11.2 6.2 0 11.2 5 11.2 11.2l0.1 24.4c0 1.5-0.6 3-1.7 4-1.1 1.1-2.5 1.7-4 1.7z"/><path class="a" d="m211.1 170.6c-1.5 0-2.7-1.2-2.7-2.8 0-1.5 1.2-2.7 2.7-2.7 1.6 0 2.8 1.2 2.8 2.7 0 1.6-1.2 2.8-2.8 2.8z"/><path class="a" d="m215.6 172.2c-1.5 0-2.8-1.3-2.8-2.8 0-1.5 1.3-2.8 2.8-2.8 1.5 0 2.8 1.3 2.8 2.8 0 1.5-1.3 2.8-2.8 2.8z"/><text style="transform:matrix(1,0,0,1,345,532)" ><tspan x="-259.3" y="0" class="g">No patient history detected. </tspan><tspan  y="0" class="g">
</tspan><tspan x="-314.5" y="45.6" class="g">Add patient and book appointment
</tspan></text></svg>